<svg xmlns="http://www.w3.org/2000/svg" viewBox="0 0 343.98 181.68"><defs><style>.cls-1{fill:#fff;}</style></defs><title>Asset 2</title><g id="Layer_2" data-name="Layer 2"><g id="Layer_1-2" data-name="Layer 1"><g id="Layer_4" data-name="Layer 4"><polygon class="cls-1" points="92.85 133.78 197.08 133.78 120.23 86.8 92.85 133.78"/><polygon class="cls-1" points="170.63 0 137.65 56.94 197.08 133.78 248.41 133.78 170.63 0"/></g><path class="cls-1" d="M30.9,143.48v6.44H19.1v31.44H11.8V149.92H0v-6.44Z"/><path class="cls-1" d="M59.74,181.36l-6.55-11.21a9.8,9.8,0,0,1-1.35.06H43.29v11.15H36V143.48h15.8c9.79,0,15.36,4.71,15.36,13,0,5.95-2.65,10.23-7.52,12.28L68,181.36ZM43.29,163.82h8.55c5.41,0,8.44-2.32,8.44-7.08s-3-6.93-8.44-6.93H43.29Z"/><path class="cls-1" d="M99.83,173.35H81.33l-3.36,8H70.45l16.61-37.88h7.53L111,181.36h-7.79Zm-2.59-6.23-6.6-15.9-6.71,15.9Z"/><path class="cls-1" d="M122.45,143.48,142,169.4V143.48h7v37.88h-6.87l-19.48-25.87v25.87h-7.09V143.48Z"/><path class="cls-1" d="M170.77,149.76c-3.4,0-5.62,1.24-5.62,3.57,0,7.68,20.34,3.51,20.29,17.1,0,7.08-6.17,11.2-14.5,11.2a24.64,24.64,0,0,1-16-6.06l3-6.12c3.9,3.46,9,5.57,13.1,5.57s6.49-1.51,6.49-4.16c0-7.9-20.35-3.41-20.35-16.88,0-6.6,5.69-10.83,14.18-10.83a25.8,25.8,0,0,1,13.69,4l-2.92,6.28A24.19,24.19,0,0,0,170.77,149.76Z"/><path class="cls-1" d="M209.46,149.7a12.58,12.58,0,1,0,0,25.16,15.14,15.14,0,0,0,10.28-4.43l4.28,4.76a21.61,21.61,0,0,1-14.93,6.49c-11.15,0-19.75-8.39-19.75-19.32s8.71-19.1,20-19.1a21,21,0,0,1,14.6,6.06l-4.22,5.31A14.21,14.21,0,0,0,209.46,149.7Z"/><path class="cls-1" d="M257.73,143.48v6.33H237.22v9.36h18.4v6.33h-18.4V175h21.16v6.34H230V143.48Z"/><path class="cls-1" d="M272.61,143.48l19.54,25.92V143.48h7v37.88h-6.87l-19.48-25.87v25.87h-7.09V143.48Z"/><path class="cls-1" d="M344,162.42c0,11-8.33,18.94-20,18.94H308.49V143.48h15.75C335.71,143.48,344,151.33,344,162.42Zm-7.41.05c0-7.41-5.35-12.61-12.44-12.61h-8.39V175h8.66C331.38,175,336.57,169.83,336.57,162.47Z"/></g></g></svg>